<?xml version="1.0" standalone="no"?><!-- Generator: Gravit.io --><svg xmlns="http://www.w3.org/2000/svg" xmlns:xlink="http://www.w3.org/1999/xlink" style="isolation:isolate" viewBox="145 320 572 408" width="572" height="408"><g style="isolation:isolate" id="img00005"><path d=" M 145 320 L 232 320 L 317 405 L 207 515 L 207 728 L 145 667 L 145 492 L 232 405 L 145 320 Z " fill="rgb(0,0,0)"/><path d=" M 273 492 L 345 564 L 345 618 L 273 547 L 273 492 Z " fill="rgb(0,0,0)"/><path d=" M 364 686 L 449 504 L 505 504 L 325 320 L 673 320 L 626 367 L 717 367 L 660 424 L 575 424 L 626 367 L 470 367 L 606 504 L 511 504 L 426 686 L 364 686 Z " fill="rgb(0,0,0)"/></g></svg>