<?xml version="1.0" standalone="no"?><!-- Generator: Gravit.io --><svg xmlns="http://www.w3.org/2000/svg" xmlns:xlink="http://www.w3.org/1999/xlink" style="isolation:isolate" viewBox="-7 2 766 395" width="766" height="395"><g style="isolation:isolate" id="img00007"><rect x="70.974" y="27.974" width="36.048" height="36.048" transform="matrix(0.707,-0.707,0.707,0.707,-6.459,76.404)" fill="rgb(0,0,0)"/><rect x="380.974" y="257.974" width="36.048" height="36.048" transform="matrix(0.707,-0.707,0.707,0.707,-78.297,362.973)" fill="rgb(0,0,0)"/><path d=" M 166 45.999 L 206 86 L 206 169 L 166 129 L 63.509 236 L 194 367 L 124 367 L -7 236 L 132 97 L 166 129 L 166 45.999 Z " fill="rgb(0,0,0)"/><path d=" M 225 91 L 449 91 L 349 275.999 L 319 250.509 L 319 397 L 266 358 L 266 195 L 319 232 L 368 146 L 261 146 L 225 91 Z " fill="rgb(0,0,0)"/><path d=" M 508 367 L 568 367 L 652 236 L 603 236 L 546 146 L 683 146 L 661 169 Q 692.775 174.575 708 187 Q 723.225 199.425 759 250.509 L 759 195 Q 754.57 179.122 748 169 Q 741.43 158.878 709 146 L 754 91 L 465 91 L 546 250.509 L 589 250.509 L 508 367 Z " fill="rgb(0,0,0)"/><path d=" M 596 71.489 L 636 71.489 L 683 2 L 589 2 L 568 30 L 625 30 L 596 71.489 Z " fill="rgb(0,0,0)"/><path d=" M 314 30 L 368 30 L 395 60 L 314 60 Q 278.471 57.865 275 35 Q 271.529 12.135 279 6 Q 294.371 29.735 314 30 Z " fill="rgb(0,0,0)"/></g></svg>