<?xml version="1.0" standalone="no"?><!-- Generator: Gravit.io --><svg xmlns="http://www.w3.org/2000/svg" xmlns:xlink="http://www.w3.org/1999/xlink" style="isolation:isolate" viewBox="0 -2 515 402" width="515" height="402"><g style="isolation:isolate" id="img00006"><path d=" M 313 -1 L 331 30 L 435 30 L 409 -2 L 313 -1 Z " fill="rgb(0,0,0)"/><path d=" M 268 47 L 452 47 L 515 122 Q 491 139 464 147 Q 437 155 403.1 151 Q 441.161 131.199 451.1 122.1 Q 461.039 113.001 466 95 L 307 95 L 307 153 L 412 260 L 441 231 Q 457 246 466 269 Q 475 292 472 336 L 429 281 L 393 309 L 268 181 L 268 47 Z " fill="rgb(0,0,0)"/><path d=" M 156 360 L 176 380 L 156 400 L 136 380 L 156 360 Z " fill="rgb(0,0,0)"/><rect x="151.999" y="155.999" width="28" height="28" transform="matrix(0.707,-0.707,0.707,0.707,-71.587,167.171)" fill="rgb(0,0,0)"/><path d=" M 226 206 L 226 251 L 165 277 L 165 329 L 0 165 L 119 46 L 235 46 Q 241.715 74.803 242 93 Q 242.285 111.197 214 145 Q 210.936 103.217 206 90 Q 201.064 76.783 178 60 L 64 172 L 152 265 L 152 233 L 226 206 Z " fill="rgb(0,0,0)"/></g></svg>