<?xml version="1.0" standalone="no"?><!-- Generator: Gravit.io --><svg xmlns="http://www.w3.org/2000/svg" xmlns:xlink="http://www.w3.org/1999/xlink" style="isolation:isolate" viewBox="0 11 1001 356" width="1001" height="356"><g style="isolation:isolate" id="Layer 5"><g style="isolation:isolate" id="Layer 4"><path d=" M 903 63 L 931 63 L 898 24 L 865 24 L 903 63 Z " fill="rgb(0,0,0)"/><path d=" M 831 74 L 895 173 L 865 173 L 803 289 L 1001 289 L 975 255 L 865 255 L 903 178 L 939 178 L 874 74 L 831 74 Z " fill="rgb(0,0,0)"/></g><g style="isolation:isolate" id="Layer 3"><path d=" M 807 73 L 775 110 L 662 110 L 662 241 L 688 220 Q 692 253 701 270 Q 710 287 727 292 L 688 292 Q 677.5 287 670 278 Q 662.5 269 662 257 L 627 292 L 627 76 L 807 73 Z " fill="rgb(0,0,0)"/><path d=" M 679 58 L 731 58 L 752 33 L 696 33 L 679 58 Z " fill="rgb(0,0,0)"/></g><g style="isolation:isolate" id="Layer 2"><path d=" M 391 337 L 416 359 L 416 300 L 507 187 L 437 111 L 570 111 Q 573.5 123.5 560 138 Q 546.5 152.5 528 160 L 586 160 Q 604 155.5 610 141 Q 616 126.5 543 74 L 351 74 L 462 187 L 391 282 L 391 337 Z " fill="rgb(0,0,0)"/></g><g style="isolation:isolate" id="Layer 1"><path d=" M 260 31 L 298 31 L 254 75 L 221 75 L 324 178 L 370 178 L 260 287 L 298 287 L 263 322 L 230 322 L 263 287 L 221 287 L 328 178 L 278 178 L 175 75 L 221 75 L 221 75 L 260 31 Z " fill="rgb(0,0,0)"/><path d=" M 302 145 L 332 145 L 366 110 L 332 110 L 302 145 Z " fill="rgb(0,0,0)"/><path d=" M 208 11 L 230 31 L 208 51 L 188 31 L 208 11 Z " fill="rgb(0,0,0)"/><path d=" M 225 345 L 281 345 L 263 367 L 208 367 L 225 345 Z " fill="rgb(0,0,0)"/></g><g style="isolation:isolate" id="Layer 0"><path d=" M 126 76 L 63 154 L 29 154 L 87 76 L 126 76 Z " fill="rgb(0,0,0)"/><path d=" M 143 146 L 183 196 L 26 199 L 0 164 L 143 164 L 143 146 Z " fill="rgb(0,0,0)"/><path d=" M 42 214 L 63 243 L 87 243 L 55 290 L 87 290 L 143 214 L 42 214 Z " fill="rgb(0,0,0)"/><path d=" M 77 318 L 120 367 L 72 367 L 63 356 L 92 356 L 69 327 L 77 318 Z " fill="rgb(0,0,0)"/><path d=" M 141 244 L 154 257 L 141 271 L 128 257 L 141 244 Z " fill="rgb(0,0,0)"/><path d=" M 111.5 115 L 127 129.926 L 111.5 146 L 96 129.926 L 111.5 115 Z " fill="rgb(0,0,0)"/></g></g></svg>